<svg width="582" height="176" viewBox="0 0 582 176" fill="none" xmlns="http://www.w3.org/2000/svg">
<rect width="582" height="176" fill="white"/>
<g clip-path="url(#clip0_0_1)">
<path d="M6.06818 83.1818H24.2727L43.5 130.091H44.3182L63.5455 83.1818H81.75V153H67.4318V107.557H66.8523L48.7841 152.659H39.0341L20.9659 107.386H20.3864V153H6.06818V83.1818ZM115.583 154.023C110.196 154.023 105.56 152.932 101.674 150.75C97.8101 148.545 94.8328 145.432 92.7419 141.409C90.651 137.364 89.6056 132.58 89.6056 127.057C89.6056 121.67 90.651 116.943 92.7419 112.875C94.8328 108.807 97.776 105.636 101.571 103.364C105.39 101.091 109.867 99.9545 115.003 99.9545C118.458 99.9545 121.674 100.511 124.651 101.625C127.651 102.716 130.265 104.364 132.492 106.568C134.742 108.773 136.492 111.545 137.742 114.886C138.992 118.205 139.617 122.091 139.617 126.545V130.534H95.401V121.534H125.946C125.946 119.443 125.492 117.591 124.583 115.977C123.674 114.364 122.412 113.102 120.799 112.193C119.208 111.261 117.356 110.795 115.242 110.795C113.037 110.795 111.083 111.307 109.378 112.33C107.696 113.33 106.378 114.682 105.424 116.386C104.469 118.068 103.981 119.943 103.958 122.011V130.568C103.958 133.159 104.435 135.398 105.39 137.284C106.367 139.17 107.742 140.625 109.515 141.648C111.287 142.67 113.39 143.182 115.821 143.182C117.435 143.182 118.912 142.955 120.253 142.5C121.594 142.045 122.742 141.364 123.696 140.455C124.651 139.545 125.378 138.432 125.878 137.114L139.31 138C138.628 141.227 137.231 144.045 135.117 146.455C133.026 148.841 130.321 150.705 127.003 152.045C123.708 153.364 119.901 154.023 115.583 154.023ZM147.174 153V100.636H161.015V109.875H161.629C162.72 106.807 164.538 104.386 167.083 102.614C169.629 100.841 172.674 99.9545 176.22 99.9545C179.811 99.9545 182.867 100.852 185.39 102.648C187.913 104.42 189.595 106.83 190.436 109.875H190.981C192.049 106.875 193.981 104.477 196.776 102.682C199.595 100.864 202.924 99.9545 206.765 99.9545C211.651 99.9545 215.617 101.511 218.663 104.625C221.731 107.716 223.265 112.102 223.265 117.784V153H208.776V120.648C208.776 117.739 208.004 115.557 206.458 114.102C204.913 112.648 202.981 111.92 200.663 111.92C198.026 111.92 195.97 112.761 194.492 114.443C193.015 116.102 192.276 118.295 192.276 121.023V153H178.197V120.341C178.197 117.773 177.458 115.727 175.981 114.205C174.526 112.682 172.606 111.92 170.22 111.92C168.606 111.92 167.151 112.33 165.856 113.148C164.583 113.943 163.572 115.068 162.822 116.523C162.072 117.955 161.697 119.636 161.697 121.568V153H147.174ZM256.476 154.023C251.18 154.023 246.601 152.898 242.737 150.648C238.896 148.375 235.93 145.216 233.839 141.17C231.749 137.102 230.703 132.386 230.703 127.023C230.703 121.614 231.749 116.886 233.839 112.841C235.93 108.773 238.896 105.614 242.737 103.364C246.601 101.091 251.18 99.9545 256.476 99.9545C261.771 99.9545 266.339 101.091 270.18 103.364C274.044 105.614 277.021 108.773 279.112 112.841C281.203 116.886 282.249 121.614 282.249 127.023C282.249 132.386 281.203 137.102 279.112 141.17C277.021 145.216 274.044 148.375 270.18 150.648C266.339 152.898 261.771 154.023 256.476 154.023ZM256.544 142.773C258.953 142.773 260.964 142.091 262.578 140.727C264.192 139.341 265.408 137.455 266.226 135.068C267.067 132.682 267.487 129.966 267.487 126.92C267.487 123.875 267.067 121.159 266.226 118.773C265.408 116.386 264.192 114.5 262.578 113.114C260.964 111.727 258.953 111.034 256.544 111.034C254.112 111.034 252.067 111.727 250.408 113.114C248.771 114.5 247.533 116.386 246.692 118.773C245.874 121.159 245.464 123.875 245.464 126.92C245.464 129.966 245.874 132.682 246.692 135.068C247.533 137.455 248.771 139.341 250.408 140.727C252.067 142.091 254.112 142.773 256.544 142.773ZM289.772 153V100.636H303.851V109.773H304.397C305.351 106.523 306.954 104.068 309.204 102.409C311.454 100.727 314.044 99.8864 316.976 99.8864C317.704 99.8864 318.488 99.9318 319.329 100.023C320.169 100.114 320.908 100.239 321.544 100.398V113.284C320.863 113.08 319.919 112.898 318.715 112.739C317.51 112.58 316.408 112.5 315.408 112.5C313.272 112.5 311.363 112.966 309.681 113.898C308.022 114.807 306.704 116.08 305.726 117.716C304.772 119.352 304.294 121.239 304.294 123.375V153H289.772ZM360.712 130.705V100.636H375.235V153H361.292V143.489H360.747C359.565 146.557 357.599 149.023 354.849 150.886C352.122 152.75 348.792 153.682 344.86 153.682C341.36 153.682 338.281 152.886 335.622 151.295C332.962 149.705 330.883 147.443 329.383 144.511C327.906 141.58 327.156 138.068 327.133 133.977V100.636H341.656V131.386C341.678 134.477 342.508 136.92 344.144 138.716C345.781 140.511 347.974 141.409 350.724 141.409C352.474 141.409 354.11 141.011 355.633 140.216C357.156 139.398 358.383 138.193 359.315 136.602C360.269 135.011 360.735 133.045 360.712 130.705ZM393.92 77.256H460.928V160.296H448.544V88.872H405.728V160.488H393.92V77.256ZM401.984 109.512H453.632V120.84H401.984V109.512ZM401.984 142.536H453.728V154.152H401.984V142.536ZM524.288 107.304H555.968V118.248H524.288V107.304ZM519.584 107.304H531.296V145.128C531.296 147.176 531.616 148.488 532.256 149.064C532.896 149.64 534.368 149.928 536.672 149.928C537.248 149.928 538.112 149.928 539.264 149.928C540.48 149.928 541.824 149.928 543.296 149.928C544.768 149.928 546.144 149.928 547.424 149.928C548.704 149.928 549.664 149.928 550.304 149.928C551.84 149.928 552.96 149.576 553.664 148.872C554.368 148.168 554.88 146.792 555.2 144.744C555.584 142.632 555.872 139.592 556.064 135.624C556.96 136.2 558.016 136.808 559.232 137.448C560.448 138.024 561.728 138.568 563.072 139.08C564.48 139.528 565.696 139.88 566.72 140.136C566.272 145.448 565.536 149.608 564.512 152.616C563.488 155.624 561.92 157.736 559.808 158.952C557.76 160.168 554.88 160.776 551.168 160.776C550.656 160.776 549.856 160.776 548.768 160.776C547.68 160.776 546.464 160.776 545.12 160.776C543.84 160.776 542.528 160.776 541.184 160.776C539.84 160.776 538.624 160.776 537.536 160.776C536.512 160.776 535.744 160.776 535.232 160.776C531.264 160.776 528.128 160.328 525.824 159.432C523.584 158.536 521.984 156.968 521.024 154.728C520.064 152.488 519.584 149.32 519.584 145.224V107.304ZM519.392 76.296H561.536V123.048H550.016V87.24H519.392V76.296ZM480.8 100.872H511.808V109.608H480.8V100.872ZM481.376 74.472H512V83.112H481.376V74.472ZM480.8 114.024H511.808V122.664H480.8V114.024ZM476.096 87.336H515.552V96.456H476.096V87.336ZM486.08 127.272H511.52V156.552H486.08V147.432H501.344V136.392H486.08V127.272ZM480.512 127.272H490.496V160.296H480.512V127.272Z" fill="black"/>
</g>
<circle cx="43" cy="25" r="25" fill="#D89BEC"/>
<circle cx="523" cy="25" r="25" fill="#D89BEC"/>
<circle cx="283" cy="25" r="25" fill="#98CDF0"/>
<circle cx="163" cy="25" r="25" fill="#BBF1B6"/>
<circle cx="403" cy="25" r="25" fill="#F7E2A9"/>
<defs>
<clipPath id="clip0_0_1">
<rect width="582" height="115" fill="white" transform="translate(0 61)"/>
</clipPath>
</defs>
</svg>
